<?xml version="1.0" encoding="UTF-8" standalone="no"?>
<!-- Created with Inkscape (http://www.inkscape.org/) -->

<svg
   width="29.315546mm"
   height="29.315546mm"
   viewBox="0 0 29.315546 29.315546"
   version="1.1"
   id="svg932"
   inkscape:version="1.2 (56b05e47e7, 2022-06-09, custom)"
   sodipodi:docname="Pharmpy_logo_only_symb.svg"
   xmlns:inkscape="http://www.inkscape.org/namespaces/inkscape"
   xmlns:sodipodi="http://sodipodi.sourceforge.net/DTD/sodipodi-0.dtd"
   xmlns="http://www.w3.org/2000/svg"
   xmlns:svg="http://www.w3.org/2000/svg"
   xmlns:rdf="http://www.w3.org/1999/02/22-rdf-syntax-ns#"
   xmlns:cc="http://creativecommons.org/ns#"
   xmlns:dc="http://purl.org/dc/elements/1.1/">
  <defs
     id="defs926" />
  <sodipodi:namedview
     id="base"
     pagecolor="#ffffff"
     bordercolor="#666666"
     borderopacity="1.0"
     inkscape:pageopacity="0.0"
     inkscape:pageshadow="2"
     inkscape:zoom="1.979899"
     inkscape:cx="143.6942"
     inkscape:cy="73.488597"
     inkscape:document-units="mm"
     inkscape:current-layer="layer1"
     showgrid="false"
     fit-margin-top="0"
     fit-margin-left="0"
     fit-margin-right="0"
     fit-margin-bottom="0"
     inkscape:window-width="2560"
     inkscape:window-height="1308"
     inkscape:window-x="0"
     inkscape:window-y="27"
     inkscape:window-maximized="1"
     inkscape:showpageshadow="2"
     inkscape:pagecheckerboard="0"
     inkscape:deskcolor="#d1d1d1" />
  <metadata
     id="metadata929">
    <rdf:RDF>
      <cc:Work
         rdf:about="">
        <dc:format>image/svg+xml</dc:format>
        <dc:type
           rdf:resource="http://purl.org/dc/dcmitype/StillImage" />
      </cc:Work>
    </rdf:RDF>
  </metadata>
  <g
     inkscape:label="Layer 1"
     inkscape:groupmode="layer"
     id="layer1"
     transform="translate(-43.669398,-190.11603)">
    <circle
       style="opacity:1;fill:#0f8282;fill-opacity:1;stroke-width:0.264999"
       id="path259-2"
       r="14.657773"
       cy="204.7738"
       cx="58.327171" />
    <path
       class="fil0"
       d="m 62.619961,193.71344 c -0.261988,-0.72583 -0.809587,-1.37866 -2.834627,-0.64638 -1.451672,0.52613 -2.295618,1.87043 -2.031482,2.59626 0.191122,0.52827 1.531128,0.55834 2.984947,0.0322 1.449525,-0.52397 2.145297,-1.25625 1.881162,-1.98209 z m -2.626325,0.8869 c -0.259841,0.13099 -0.526124,0.12455 -0.594842,-0.0129 -0.06872,-0.13958 0.08375,-0.35433 0.341444,-0.48532 0.259841,-0.13099 0.526124,-0.12455 0.594842,0.0129 0.07087,0.13959 -0.08375,0.35648 -0.341444,0.48533 z"
       id="path7"
       inkscape:connector-curvature="0"
       style="clip-rule:evenodd;fill:#ffffff;fill-rule:evenodd;stroke-width:0.00292258;image-rendering:optimizeQuality;shape-rendering:geometricPrecision;text-rendering:geometricPrecision" />
    <path
       class="fil0"
       d="m 56.821861,196.33118 c -0.05798,0.009 -0.05798,0.0193 0,0.0301 l 0.513239,0.0902 -0.536861,0.31568 c -0.04939,0.0301 -0.04295,0.0451 0.01288,0.0344 1.015741,-0.21045 1.928405,-0.97279 1.928405,-0.97279 l -0.139584,-0.0687 c -0.0064,0.006 -0.901927,0.47029 -1.778084,0.57122 z"
       id="path9"
       inkscape:connector-curvature="0"
       style="clip-rule:evenodd;fill:#ffffff;fill-rule:evenodd;stroke-width:0.00292258;image-rendering:optimizeQuality;shape-rendering:geometricPrecision;text-rendering:geometricPrecision" />
    <g
       id="_733798384"
       transform="matrix(0.00214744,0,0,0.00214744,48.985836,192.53664)"
       style="clip-rule:evenodd;fill:#ffffff;fill-rule:evenodd;stroke-width:1.36096;image-rendering:optimizeQuality;shape-rendering:geometricPrecision;text-rendering:geometricPrecision">
      <path
         class="fil0"
         d="M 4064,9613 V 6943 c 936,-220 1552,-778 1952,-1450 -582,234 -1179,421 -1722,589 -642,200 -1503,468 -2005,757 111,40 227,75 348,104 v 2670 l -1507,1396 c -231,214 -163,388 152,388 h 4137 c 315,0 383,-174 152,-388 z"
         id="path11"
         inkscape:connector-curvature="0"
         style="fill:#ffffff;stroke-width:1.36096" />
      <path
         class="fil0"
         d="m 3828,4584 c 1201,-374 2201,-718 2837,-1190 21,-197 33,-384 37,-557 2,-79 -62,-143 -141,-143 H 141 c -79,0 -143,64 -141,143 20,877 228,2131 952,3042 675,-610 1787,-956 2876,-1295 z"
         id="path13"
         inkscape:connector-curvature="0"
         style="fill:#ffffff;stroke-width:1.36096" />
    </g>
    <g
       id="_733798768"
       transform="matrix(0.00214744,0,0,0.00214744,48.985836,192.53664)"
       style="clip-rule:evenodd;fill:#ffffff;fill-rule:evenodd;stroke-width:1.36096;image-rendering:optimizeQuality;shape-rendering:geometricPrecision;text-rendering:geometricPrecision">
      <path
         class="fil0"
         d="m 7157,10786 c -227,-221 -471,-442 -741,-640 -266,-203 -553,-386 -846,-557 -399,-230 -814,-428 -1221,-605 v 505 l 272,251 c 242,89 483,184 720,292 291,136 578,282 846,450 272,162 522,349 758,538 80,64 155,132 229,199 58,53 150,53 205,1 54,-52 54,-141 1,-199 -72,-79 -144,-159 -223,-235 z"
         id="path16"
         inkscape:connector-curvature="0"
         style="fill:#ffffff;stroke-width:1.36096" />
      <path
         class="fil0"
         d="M 7370,153 C 6727,-90 6025,-38 5408,269 c -317,157 264,979 461,885 421,-201 848,-180 1148,-67 206,77 685,327 685,965 0,1509 -1571,2114 -3789,2804 -1708,531 -3321,1033 -3321,2427 0,0 7,59 19,169 6,55 13,122 40,203 25,80 47,173 102,266 88,201 261,392 461,553 204,163 439,277 688,385 145,61 296,115 450,166 v -882 c -30,-16 -62,-31 -91,-47 -195,-107 -362,-213 -463,-315 -31,-24 -45,-51 -67,-73 -21,-24 -42,-45 -51,-68 -13,-22 -26,-42 -38,-60 -7,-20 -14,-39 -20,-57 -19,-32 -17,-68 -24,-96 -9,-26 -6,-55 -5,-77 0,-44 -2,-67 -2,-67 0,-658 1331,-1073 2618,-1473 C 6210,5187 8700,4413 8700,2052 8701,1190 8191,462 7370,153 Z"
         id="path18"
         inkscape:connector-curvature="0"
         style="fill:#ffffff;stroke-width:1.36096" />
    </g>
  </g>
</svg>
