<?xml version="1.0" encoding="UTF-8" standalone="no"?>
<!-- Created with Inkscape (http://www.inkscape.org/) -->

<svg
   xmlns:dc="http://purl.org/dc/elements/1.1/"
   xmlns:cc="http://creativecommons.org/ns#"
   xmlns:rdf="http://www.w3.org/1999/02/22-rdf-syntax-ns#"
   xmlns:svg="http://www.w3.org/2000/svg"
   xmlns="http://www.w3.org/2000/svg"
   xmlns:sodipodi="http://sodipodi.sourceforge.net/DTD/sodipodi-0.dtd"
   xmlns:inkscape="http://www.inkscape.org/namespaces/inkscape"
   width="75.946915mm"
   height="29.315546mm"
   viewBox="0 0 75.946915 29.315546"
   version="1.1"
   id="svg932"
   inkscape:version="0.92.5 (2060ec1f9f, 2020-04-08)"
   sodipodi:docname="pharmr.svg">
  <defs
     id="defs926" />
  <sodipodi:namedview
     id="base"
     pagecolor="#ffffff"
     bordercolor="#666666"
     borderopacity="1.0"
     inkscape:pageopacity="0.0"
     inkscape:pageshadow="2"
     inkscape:zoom="1.979899"
     inkscape:cx="-44.235936"
     inkscape:cy="70.27093"
     inkscape:document-units="mm"
     inkscape:current-layer="layer1"
     showgrid="false"
     fit-margin-top="0"
     fit-margin-left="0"
     fit-margin-right="0"
     fit-margin-bottom="0"
     inkscape:window-width="1920"
     inkscape:window-height="1016"
     inkscape:window-x="0"
     inkscape:window-y="27"
     inkscape:window-maximized="1" />
  <metadata
     id="metadata929">
    <rdf:RDF>
      <cc:Work
         rdf:about="">
        <dc:format>image/svg+xml</dc:format>
        <dc:type
           rdf:resource="http://purl.org/dc/dcmitype/StillImage" />
        <dc:title />
      </cc:Work>
    </rdf:RDF>
  </metadata>
  <g
     inkscape:label="Layer 1"
     inkscape:groupmode="layer"
     id="layer1"
     transform="translate(-43.669398,-190.11603)">
    <circle
       style="opacity:1;fill:#950952;stroke-width:0.264999;fill-opacity:1"
       id="path259-2"
       r="14.657773"
       cy="204.7738"
       cx="58.327171" />
    <path
       class="fil0"
       d="m 62.619961,193.71344 c -0.261988,-0.72583 -0.809587,-1.37866 -2.834627,-0.64638 -1.451672,0.52613 -2.295618,1.87043 -2.031482,2.59626 0.191122,0.52827 1.531128,0.55834 2.984947,0.0322 1.449525,-0.52397 2.145297,-1.25625 1.881162,-1.98209 z m -2.626325,0.8869 c -0.259841,0.13099 -0.526124,0.12455 -0.594842,-0.0129 -0.06872,-0.13958 0.08375,-0.35433 0.341444,-0.48532 0.259841,-0.13099 0.526124,-0.12455 0.594842,0.0129 0.07087,0.13959 -0.08375,0.35648 -0.341444,0.48533 z"
       id="path7"
       inkscape:connector-curvature="0"
       style="clip-rule:evenodd;fill:#ffffff;fill-rule:evenodd;stroke-width:0.00292258;image-rendering:optimizeQuality;shape-rendering:geometricPrecision;text-rendering:geometricPrecision" />
    <path
       class="fil0"
       d="m 56.821861,196.33118 c -0.05798,0.009 -0.05798,0.0193 0,0.0301 l 0.513239,0.0902 -0.536861,0.31568 c -0.04939,0.0301 -0.04295,0.0451 0.01288,0.0344 1.015741,-0.21045 1.928405,-0.97279 1.928405,-0.97279 l -0.139584,-0.0687 c -0.0064,0.006 -0.901927,0.47029 -1.778084,0.57122 z"
       id="path9"
       inkscape:connector-curvature="0"
       style="clip-rule:evenodd;fill:#ffffff;fill-rule:evenodd;stroke-width:0.00292258;image-rendering:optimizeQuality;shape-rendering:geometricPrecision;text-rendering:geometricPrecision" />
    <g
       id="_733798384"
       transform="matrix(0.00214744,0,0,0.00214744,48.985836,192.53664)"
       style="clip-rule:evenodd;fill:#ffffff;fill-rule:evenodd;stroke-width:1.36096001;image-rendering:optimizeQuality;shape-rendering:geometricPrecision;text-rendering:geometricPrecision">
      <path
         class="fil0"
         d="M 4064,9613 V 6943 c 936,-220 1552,-778 1952,-1450 -582,234 -1179,421 -1722,589 -642,200 -1503,468 -2005,757 111,40 227,75 348,104 v 2670 l -1507,1396 c -231,214 -163,388 152,388 h 4137 c 315,0 383,-174 152,-388 z"
         id="path11"
         inkscape:connector-curvature="0"
         style="fill:#ffffff;stroke-width:1.36096001" />
      <path
         class="fil0"
         d="m 3828,4584 c 1201,-374 2201,-718 2837,-1190 21,-197 33,-384 37,-557 2,-79 -62,-143 -141,-143 H 141 c -79,0 -143,64 -141,143 20,877 228,2131 952,3042 675,-610 1787,-956 2876,-1295 z"
         id="path13"
         inkscape:connector-curvature="0"
         style="fill:#ffffff;stroke-width:1.36096001" />
    </g>
    <g
       id="_733798768"
       transform="matrix(0.00214744,0,0,0.00214744,48.985836,192.53664)"
       style="clip-rule:evenodd;fill:#ffffff;fill-rule:evenodd;stroke-width:1.36096001;image-rendering:optimizeQuality;shape-rendering:geometricPrecision;text-rendering:geometricPrecision">
      <path
         class="fil0"
         d="m 7157,10786 c -227,-221 -471,-442 -741,-640 -266,-203 -553,-386 -846,-557 -399,-230 -814,-428 -1221,-605 v 505 l 272,251 c 242,89 483,184 720,292 291,136 578,282 846,450 272,162 522,349 758,538 80,64 155,132 229,199 58,53 150,53 205,1 54,-52 54,-141 1,-199 -72,-79 -144,-159 -223,-235 z"
         id="path16"
         inkscape:connector-curvature="0"
         style="fill:#ffffff;stroke-width:1.36096001" />
      <path
         class="fil0"
         d="M 7370,153 C 6727,-90 6025,-38 5408,269 c -317,157 264,979 461,885 421,-201 848,-180 1148,-67 206,77 685,327 685,965 0,1509 -1571,2114 -3789,2804 -1708,531 -3321,1033 -3321,2427 0,0 7,59 19,169 6,55 13,122 40,203 25,80 47,173 102,266 88,201 261,392 461,553 204,163 439,277 688,385 145,61 296,115 450,166 v -882 c -30,-16 -62,-31 -91,-47 -195,-107 -362,-213 -463,-315 -31,-24 -45,-51 -67,-73 -21,-24 -42,-45 -51,-68 -13,-22 -26,-42 -38,-60 -7,-20 -14,-39 -20,-57 -19,-32 -17,-68 -24,-96 -9,-26 -6,-55 -5,-77 0,-44 -2,-67 -2,-67 0,-658 1331,-1073 2618,-1473 C 6210,5187 8700,4413 8700,2052 8701,1190 8191,462 7370,153 Z"
         id="path18"
         inkscape:connector-curvature="0"
         style="fill:#ffffff;stroke-width:1.36096001" />
    </g>
    <path
       inkscape:connector-curvature="0"
       id="path4529"
       style="font-style:normal;font-variant:normal;font-weight:bold;font-stretch:normal;font-size:26.66666603px;line-height:1.25;font-family:sans-serif;-inkscape-font-specification:'sans-serif, Bold';font-variant-ligatures:normal;font-variant-caps:normal;font-variant-numeric:normal;font-feature-settings:normal;text-align:start;letter-spacing:0px;word-spacing:0px;writing-mode:lr-tb;text-anchor:start;fill:#000000;fill-opacity:1;stroke:none;stroke-width:0.37977734"
       d="m 77.220529,207.21412 v 3.03858 h -1.69405 v -7.98918 h 1.69405 v 0.8475 q 0.350167,-0.50643 0.776045,-0.74414 0.425879,-0.24288 0.979521,-0.24288 0.97952,0 1.608874,0.85266 0.629354,0.84749 0.629354,2.18591 0,1.33842 -0.629354,2.19108 -0.629354,0.84749 -1.608874,0.84749 -0.553642,0 -0.979521,-0.23771 -0.425878,-0.24288 -0.776045,-0.74931 z m 1.126212,-3.74654 q -0.544178,0 -0.837561,0.43925 -0.288651,0.43409 -0.288651,1.25574 0,0.82165 0.288651,1.2609 0.293383,0.43409 0.837561,0.43409 0.544178,0 0.828097,-0.43409 0.288651,-0.43408 0.288651,-1.2609 0,-0.82682 -0.288651,-1.2609 -0.283919,-0.43409 -0.828097,-0.43409 z" />
    <path
       inkscape:connector-curvature="0"
       id="path4531"
       style="font-style:normal;font-variant:normal;font-weight:bold;font-stretch:normal;font-size:26.66666603px;line-height:1.25;font-family:sans-serif;-inkscape-font-specification:'sans-serif, Bold';font-variant-ligatures:normal;font-variant-caps:normal;font-variant-numeric:normal;font-feature-settings:normal;text-align:start;letter-spacing:0px;word-spacing:0px;writing-mode:lr-tb;text-anchor:start;fill:#000000;fill-opacity:1;stroke:none;stroke-width:0.37977734"
       d="m 87.791777,204.52695 v 3.52433 h -1.703513 v -0.57361 -2.11356 q 0,-0.75965 -0.03311,-1.04387 -0.02838,-0.28422 -0.104104,-0.41857 -0.09937,-0.18087 -0.269724,-0.27906 -0.170351,-0.10335 -0.388023,-0.10335 -0.529981,0 -0.832827,0.44959 -0.302849,0.44441 -0.302849,1.23506 v 2.84737 h -1.694063 v -8.04085 h 1.694048 v 3.10059 q 0.383292,-0.50643 0.813904,-0.74414 0.430608,-0.24288 0.951129,-0.24288 0.918005,0 1.391202,0.61495 0.477928,0.61495 0.477928,1.788 z" />
    <path
       inkscape:connector-curvature="0"
       id="path4533"
       style="font-style:normal;font-variant:normal;font-weight:bold;font-stretch:normal;font-size:26.66666603px;line-height:1.25;font-family:sans-serif;-inkscape-font-specification:'sans-serif, Bold';font-variant-ligatures:normal;font-variant-caps:normal;font-variant-numeric:normal;font-feature-settings:normal;text-align:start;letter-spacing:0px;word-spacing:0px;writing-mode:lr-tb;text-anchor:start;fill:#000000;fill-opacity:1;stroke:none;stroke-width:0.37977734"
       d="m 91.738253,205.44679 q -0.529985,0 -0.799705,0.19637 -0.264992,0.19637 -0.264992,0.57878 0,0.3514 0.21294,0.55293 0.217672,0.19637 0.60096,0.19637 0.477932,0 0.804436,-0.37207 0.326508,-0.37723 0.326508,-0.94051 v -0.21187 z m 2.588393,-0.69763 v 3.30212 H 92.6184 v -0.85783 q -0.340703,0.5271 -0.766579,0.76998 -0.425881,0.23771 -1.036304,0.23771 -0.823367,0 -1.339152,-0.52193 -0.511055,-0.5271 -0.511055,-1.36426 0,-1.01802 0.638817,-1.49345 0.643552,-0.47542 2.015827,-0.47542 H 92.6184 v -0.14469 q 0,-0.43925 -0.317041,-0.64079 -0.317044,-0.2067 -0.988986,-0.2067 -0.544176,0 -1.012645,0.11885 -0.468466,0.11886 -0.870684,0.35657 v -1.41077 q 0.54418,-0.14469 1.093087,-0.21704 0.548911,-0.0775 1.097823,-0.0775 1.43379,0 2.067875,0.62011 0.638817,0.61495 0.638817,2.00505 z" />
    <path
       inkscape:connector-curvature="0"
       id="path4535"
       style="font-style:normal;font-variant:normal;font-weight:bold;font-stretch:normal;font-size:26.66666603px;line-height:1.25;font-family:sans-serif;-inkscape-font-specification:'sans-serif, Bold';font-variant-ligatures:normal;font-variant-caps:normal;font-variant-numeric:normal;font-feature-settings:normal;text-align:start;letter-spacing:0px;word-spacing:0px;writing-mode:lr-tb;text-anchor:start;fill:#000000;fill-opacity:1;stroke:none;stroke-width:0.37977734"
       d="m 99.839409,203.83965 q -0.222404,-0.11368 -0.444807,-0.16536 -0.217672,-0.0568 -0.440075,-0.0568 -0.653016,0 -1.007914,0.45992 -0.350166,0.45476 -0.350166,1.30742 v 2.6665 h -1.69405 v -5.78776 h 1.69405 v 0.95085 q 0.326508,-0.56844 0.747653,-0.82683 0.42588,-0.26354 1.017377,-0.26354 0.08518,0 0.184546,0.0103 0.09937,0.005 0.288651,0.031 z" />
    <path
       inkscape:connector-curvature="0"
       id="path4537"
       style="font-style:normal;font-variant:normal;font-weight:bold;font-stretch:normal;font-size:26.66666603px;line-height:1.25;font-family:sans-serif;-inkscape-font-specification:'sans-serif, Bold';font-variant-ligatures:normal;font-variant-caps:normal;font-variant-numeric:normal;font-feature-settings:normal;text-align:start;letter-spacing:0px;word-spacing:0px;writing-mode:lr-tb;text-anchor:start;fill:#000000;fill-opacity:1;stroke:none;stroke-width:0.37977734"
       d="m 105.5935,203.2247 q 0.32178,-0.53743 0.76185,-0.81649 0.4448,-0.28421 0.97479,-0.28421 0.91327,0 1.3912,0.61495 0.47793,0.61495 0.47793,1.788 v 3.52433 h -1.70352 v -3.0179 q 0.005,-0.0672 0.005,-0.13953 0.005,-0.0724 0.005,-0.2067 0,-0.61495 -0.16562,-0.88884 -0.16562,-0.27905 -0.53471,-0.27905 -0.48266,0 -0.74766,0.43408 -0.26025,0.43408 -0.26972,1.25574 v 2.8422 h -1.70351 v -3.0179 q 0,-0.96118 -0.15142,-1.23507 -0.15143,-0.27905 -0.53945,-0.27905 -0.48739,0 -0.75239,0.43925 -0.26499,0.43408 -0.26499,1.2454 v 2.84737 h -1.70351 v -5.78776 h 1.70351 v 0.8475 q 0.31231,-0.49093 0.71453,-0.73898 0.40695,-0.24804 0.89435,-0.24804 0.54891,0 0.97005,0.28939 0.42115,0.28938 0.63882,0.81131 z" />
    <path
       inkscape:connector-curvature="0"
       id="path4539"
       style="font-style:normal;font-variant:normal;font-weight:bold;font-stretch:normal;font-size:26.66666603px;line-height:1.25;font-family:sans-serif;-inkscape-font-specification:'sans-serif, Bold';font-variant-ligatures:normal;font-variant-caps:normal;font-variant-numeric:normal;font-feature-settings:normal;text-align:start;letter-spacing:0px;word-spacing:0px;writing-mode:lr-tb;text-anchor:start;fill:#950952;fill-opacity:1;stroke:none;stroke-width:0.37977734"
       d="m 114.71676,203.83965 q -0.2224,-0.11368 -0.44481,-0.16536 -0.21767,-0.0568 -0.44007,-0.0568 -0.65301,0 -1.00791,0.45992 -0.35017,0.45476 -0.35017,1.30742 v 2.6665 h -1.69405 v -5.78776 h 1.69405 v 0.95085 q 0.32651,-0.56844 0.74765,-0.82683 0.42588,-0.26354 1.01738,-0.26354 0.0852,0 0.18455,0.0103 0.0994,0.005 0.28865,0.031 z" />
  </g>
</svg>
