<?xml version="1.0" encoding="UTF-8" standalone="no"?>
<!-- Created with Inkscape (http://www.inkscape.org/) -->

<svg
   width="75.946915mm"
   height="29.315546mm"
   viewBox="0 0 75.946915 29.315546"
   version="1.1"
   id="svg932"
   inkscape:version="1.2 (56b05e47e7, 2022-06-09, custom)"
   sodipodi:docname="Pharmpy_logo_dark.svg"
   xmlns:inkscape="http://www.inkscape.org/namespaces/inkscape"
   xmlns:sodipodi="http://sodipodi.sourceforge.net/DTD/sodipodi-0.dtd"
   xmlns="http://www.w3.org/2000/svg"
   xmlns:svg="http://www.w3.org/2000/svg"
   xmlns:rdf="http://www.w3.org/1999/02/22-rdf-syntax-ns#"
   xmlns:cc="http://creativecommons.org/ns#"
   xmlns:dc="http://purl.org/dc/elements/1.1/">
  <defs
     id="defs926" />
  <sodipodi:namedview
     id="base"
     pagecolor="#ffffff"
     bordercolor="#666666"
     borderopacity="1.0"
     inkscape:pageopacity="0.0"
     inkscape:pageshadow="2"
     inkscape:zoom="5.6"
     inkscape:cx="122.32143"
     inkscape:cy="67.232142"
     inkscape:document-units="mm"
     inkscape:current-layer="layer1"
     showgrid="false"
     fit-margin-top="0"
     fit-margin-left="0"
     fit-margin-right="0"
     fit-margin-bottom="0"
     inkscape:window-width="2560"
     inkscape:window-height="1308"
     inkscape:window-x="0"
     inkscape:window-y="27"
     inkscape:window-maximized="1"
     inkscape:showpageshadow="2"
     inkscape:pagecheckerboard="true"
     inkscape:deskcolor="#d1d1d1" />
  <metadata
     id="metadata929">
    <rdf:RDF>
      <cc:Work
         rdf:about="">
        <dc:format>image/svg+xml</dc:format>
        <dc:type
           rdf:resource="http://purl.org/dc/dcmitype/StillImage" />
      </cc:Work>
    </rdf:RDF>
  </metadata>
  <g
     inkscape:label="Layer 1"
     inkscape:groupmode="layer"
     id="layer1"
     transform="translate(-43.669398,-190.11603)">
    <path
       id="path259-2"
       clip-path="none"
       style="opacity:1;fill:#0f8282;stroke-width:0.264999;fill-opacity:1"
       d="M 58.327418 190.11603 A 14.657773 14.657773 0 0 0 43.669398 204.77405 A 14.657773 14.657773 0 0 0 58.327418 219.43155 A 14.657773 14.657773 0 0 0 72.984921 204.77405 A 14.657773 14.657773 0 0 0 58.327418 190.11603 z M 63.012403 192.53655 C 63.61958 192.53666 64.22707 192.64405 64.812294 192.86522 C 66.575332 193.52878 67.67055 195.09195 67.66845 196.943 C 67.66845 202.0131 62.321601 203.67545 58.024594 205.01331 C 55.260854 205.87228 52.402198 206.76341 52.402198 208.17643 C 52.402198 208.17643 52.406849 208.22559 52.406849 208.32009 C 52.404699 208.36734 52.398371 208.42965 52.417701 208.48545 C 52.432731 208.54558 52.428061 208.62294 52.468861 208.69164 C 52.481751 208.73025 52.496722 208.77111 52.511752 208.81411 C 52.537522 208.85275 52.565481 208.8961 52.593401 208.9433 C 52.612731 208.99273 52.657855 209.03753 52.702955 209.08903 C 52.750203 209.13627 52.780562 209.19411 52.847132 209.24561 C 53.064024 209.46465 53.422636 209.69229 53.841387 209.92206 C 53.903663 209.95639 53.972304 209.98894 54.036724 210.02334 L 54.036724 211.91728 C 53.706018 211.80776 53.381749 211.69171 53.070375 211.56072 C 52.535662 211.3288 52.031023 211.08392 51.592945 210.73389 C 51.163462 210.38815 50.7918 209.97801 50.602825 209.54637 C 50.484716 209.34666 50.437407 209.14714 50.383717 208.97534 C 50.325737 208.8014 50.310814 208.6573 50.297934 208.53919 C 50.272164 208.30302 50.25711 208.17643 50.25711 208.17643 C 50.25711 205.18289 53.721166 204.10515 57.388974 202.96486 C 62.151971 201.48313 65.525428 200.18348 65.525428 196.943 C 65.525428 195.57293 64.496573 195.03613 64.0542 194.87078 C 63.588925 194.69552 62.981685 194.62357 62.339576 194.75967 C 62.019768 195.10677 61.477888 195.42831 60.73864 195.69553 C 59.851625 196.01655 59.007229 196.13042 58.440073 196.05055 C 58.090482 196.29266 57.475752 196.66373 56.811231 196.80141 C 56.755403 196.81211 56.748922 196.7974 56.798312 196.7673 L 57.335231 196.45156 L 56.822084 196.36113 C 56.764104 196.35033 56.764104 196.34015 56.822084 196.33115 C 57.301294 196.27595 57.780628 196.11327 58.122779 195.9751 C 57.933283 195.90616 57.803935 195.80203 57.75381 195.6635 C 57.489674 194.93767 58.333544 193.5934 59.78521 193.06727 C 60.544597 192.79267 61.096225 192.71248 61.502935 192.75825 C 61.977284 192.61762 62.464957 192.54254 62.953492 192.53707 C 62.973077 192.53685 62.992817 192.53655 63.012403 192.53655 z M 60.088551 194.00778 C 59.984946 194.00949 59.862052 194.04095 59.740252 194.10235 C 59.482558 194.23334 59.329953 194.44801 59.39867 194.58759 C 59.467388 194.72504 59.733625 194.7315 59.993466 194.60051 C 60.25116 194.47166 60.405917 194.25486 60.335047 194.11527 C 60.300688 194.04654 60.216862 194.0102 60.109221 194.00778 C 60.102494 194.00763 60.095458 194.00767 60.088551 194.00778 z M 49.288693 198.32173 L 63.075449 198.32173 C 63.245093 198.32173 63.382056 198.45904 63.377756 198.62869 C 63.369156 199.00019 63.343791 199.40196 63.298691 199.825 C 61.932923 200.83859 59.785107 201.57726 57.206039 202.3804 C 54.867489 203.10839 52.479707 203.85168 51.030189 205.16162 C 49.47545 203.20534 49.028819 200.51199 48.985869 198.62869 C 48.981574 198.45904 49.119045 198.32173 49.288693 198.32173 z M 61.904977 204.33273 C 61.046007 205.77581 59.722977 206.9738 57.712985 207.44624 L 57.712985 213.17974 L 60.94948 216.17801 C 61.445539 216.6375 61.299323 217.01103 60.622885 217.01103 L 51.738673 217.01103 C 51.062235 217.01103 50.916537 216.6375 51.412595 216.17801 L 54.648573 213.17974 L 54.648573 207.44624 C 54.388733 207.38396 54.139692 207.3089 53.901332 207.223 C 54.979341 206.60239 56.828362 206.02675 58.207012 205.59726 C 59.373066 205.23649 60.655179 204.83523 61.904977 204.33273 z M 58.324834 211.82943 C 59.198841 212.20953 60.090068 212.63467 60.946896 213.12858 C 61.576096 213.49579 62.192621 213.88844 62.76384 214.32437 C 63.343648 214.74956 63.867489 215.22438 64.354957 215.69896 C 64.524605 215.86216 64.679383 216.03368 64.833998 216.20333 C 64.947859 216.32788 64.947892 216.51902 64.831931 216.63069 C 64.713822 216.7425 64.516198 216.74243 64.391647 216.62862 C 64.232737 216.48474 64.071483 216.33869 63.899688 216.20126 C 63.392892 215.79539 62.855984 215.39417 62.27188 215.04629 C 61.696367 214.68552 61.080358 214.37199 60.455454 214.07994 C 59.946511 213.84801 59.428975 213.64371 58.909295 213.45259 L 58.324834 212.9136 L 58.324834 211.82943 z " />
    <path
       id="path1731-4"
       style="font-style:normal;font-variant:normal;font-weight:bold;font-stretch:normal;font-size:40px;line-height:1.25;font-family:'PT Sans';-inkscape-font-specification:'PT Sans, Bold';font-variant-ligatures:normal;font-variant-caps:normal;font-variant-numeric:normal;font-feature-settings:normal;text-align:start;letter-spacing:0px;word-spacing:0px;writing-mode:lr-tb;text-anchor:start;fill:#ffffff;fill-opacity:1;stroke:none;stroke-width:0.39687583"
       d="m 76.189166,201.22307 q 0.489912,-0.0933 1.073141,-0.13998 0.594894,-0.0583 1.178123,-0.0583 0.606559,0 1.213117,0.10498 0.618223,0.0933 1.108136,0.39659 0.489912,0.29162 0.793192,0.82819 0.314943,0.52491 0.314943,1.37642 0,0.76986 -0.268285,1.30643 -0.268285,0.52491 -0.71154,0.86318 -0.443254,0.33828 -1.014819,0.48992 -0.5599,0.15164 -1.166458,0.15164 -0.05832,0 -0.186633,0 -0.128311,0 -0.268286,0 -0.139975,-0.0117 -0.27995,-0.0233 -0.12831,-0.0117 -0.186633,-0.0233 v 2.81116 h -1.598048 z m 2.379575,1.17812 q -0.233292,0 -0.443254,0.0233 -0.209963,0.0117 -0.338273,0.035 v 2.64786 q 0.04666,0.0117 0.139975,0.0233 0.09332,0.0117 0.198298,0.0233 0.104981,0 0.198298,0 0.104981,0 0.151639,0 0.314944,0 0.618223,-0.0583 0.314944,-0.0583 0.5599,-0.20997 0.244957,-0.1633 0.384932,-0.44325 0.151639,-0.27995 0.151639,-0.73487 0,-0.38493 -0.139975,-0.62989 -0.139975,-0.25662 -0.373267,-0.40826 -0.221627,-0.15164 -0.513241,-0.20996 -0.291615,-0.0583 -0.594894,-0.0583 z"
       inkscape:connector-curvature="0" />
    <path
       id="path1733-7"
       style="font-style:normal;font-variant:normal;font-weight:bold;font-stretch:normal;font-size:40px;line-height:1.25;font-family:'PT Sans';-inkscape-font-specification:'PT Sans, Bold';font-variant-ligatures:normal;font-variant-caps:normal;font-variant-numeric:normal;font-feature-settings:normal;text-align:start;letter-spacing:0px;word-spacing:0px;writing-mode:lr-tb;text-anchor:start;fill:#ffffff;fill-opacity:1;stroke:none;stroke-width:0.39687583"
       d="m 86.395662,209.30662 v -3.31274 q 0,-0.71154 -0.198298,-1.02648 -0.198298,-0.31495 -0.723204,-0.31495 -0.384931,0 -0.71154,0.26829 -0.314944,0.25662 -0.419925,0.66488 v 3.721 h -1.516396 v -8.16521 h 1.516396 v 2.98614 h 0.04666 q 0.27995,-0.37327 0.68821,-0.5949 0.408261,-0.22162 1.038148,-0.22162 0.443254,0 0.781527,0.11664 0.338273,0.11665 0.5599,0.38493 0.233292,0.26829 0.338273,0.73487 0.116646,0.45492 0.116646,1.13147 v 3.62768 z"
       inkscape:connector-curvature="0" />
    <path
       id="path1735-4"
       style="font-style:normal;font-variant:normal;font-weight:bold;font-stretch:normal;font-size:40px;line-height:1.25;font-family:'PT Sans';-inkscape-font-specification:'PT Sans, Bold';font-variant-ligatures:normal;font-variant-caps:normal;font-variant-numeric:normal;font-feature-settings:normal;text-align:start;letter-spacing:0px;word-spacing:0px;writing-mode:lr-tb;text-anchor:start;fill:#ffffff;fill-opacity:1;stroke:none;stroke-width:0.39687583"
       d="m 89.148481,203.8126 q 0.466583,-0.20996 1.108135,-0.32661 0.641553,-0.12831 1.341428,-0.12831 0.606558,0 1.014819,0.15164 0.40826,0.13998 0.641552,0.40826 0.244956,0.26829 0.338273,0.64156 0.104981,0.37326 0.104981,0.83985 0,0.51324 -0.03499,1.03814 -0.03499,0.51325 -0.04666,1.01482 0,0.50158 0.03499,0.97983 0.03499,0.46658 0.174968,0.88651 h -1.236446 l -0.244956,-0.80486 h -0.05832 q -0.233292,0.3616 -0.653217,0.62989 -0.40826,0.25662 -1.061477,0.25662 -0.40826,0 -0.734869,-0.11665 -0.326608,-0.12831 -0.5599,-0.34993 -0.233291,-0.2333 -0.361602,-0.53658 -0.12831,-0.31494 -0.12831,-0.69987 0,-0.53657 0.233291,-0.89817 0.244957,-0.37327 0.688211,-0.5949 0.454919,-0.23329 1.073142,-0.31494 0.629887,-0.0933 1.39975,-0.0583 0.08165,-0.65322 -0.09332,-0.93317 -0.174969,-0.29162 -0.781527,-0.29162 -0.454919,0 -0.968161,0.0933 -0.501577,0.0933 -0.828185,0.24496 z m 1.924656,4.33923 q 0.454919,0 0.723205,-0.1983 0.268285,-0.20996 0.396595,-0.44325 v -0.7582 q -0.361602,-0.035 -0.699875,-0.0117 -0.326608,0.0233 -0.583229,0.10498 -0.256621,0.0817 -0.40826,0.2333 -0.15164,0.15164 -0.15164,0.38493 0,0.32661 0.186633,0.51324 0.198298,0.17497 0.536571,0.17497 z"
       inkscape:connector-curvature="0" />
    <path
       id="path1737-4"
       style="font-style:normal;font-variant:normal;font-weight:bold;font-stretch:normal;font-size:40px;line-height:1.25;font-family:'PT Sans';-inkscape-font-specification:'PT Sans, Bold';font-variant-ligatures:normal;font-variant-caps:normal;font-variant-numeric:normal;font-feature-settings:normal;text-align:start;letter-spacing:0px;word-spacing:0px;writing-mode:lr-tb;text-anchor:start;fill:#ffffff;fill-opacity:1;stroke:none;stroke-width:0.39687583"
       d="m 98.188517,204.89741 q -0.361603,-0.12831 -0.653217,-0.12831 -0.408261,0 -0.688211,0.22163 -0.268285,0.20996 -0.361602,0.54823 v 3.76766 h -1.516396 v -5.83229 h 1.178123 l 0.174969,0.76986 h 0.04666 q 0.198298,-0.43159 0.536571,-0.66488 0.338273,-0.23329 0.793192,-0.23329 0.303279,0 0.688211,0.12831 z"
       inkscape:connector-curvature="0" />
    <path
       id="path1739-3"
       style="font-style:normal;font-variant:normal;font-weight:bold;font-stretch:normal;font-size:40px;line-height:1.25;font-family:'PT Sans';-inkscape-font-specification:'PT Sans, Bold';font-variant-ligatures:normal;font-variant-caps:normal;font-variant-numeric:normal;font-feature-settings:normal;text-align:start;letter-spacing:0px;word-spacing:0px;writing-mode:lr-tb;text-anchor:start;fill:#ffffff;fill-opacity:1;stroke:none;stroke-width:0.39687583"
       d="m 102.3761,209.30662 v -3.17276 q 0,-0.80486 -0.15164,-1.14313 -0.15164,-0.33828 -0.62989,-0.33828 -0.39659,0 -0.64155,0.22163 -0.24496,0.20996 -0.37327,0.54824 v 3.8843 h -1.516392 v -5.83229 h 1.178122 l 0.17497,0.76986 h 0.0467 q 0.26828,-0.37326 0.67654,-0.65321 0.41993,-0.27995 1.07315,-0.27995 0.5599,0 0.90983,0.23329 0.36161,0.22162 0.5599,0.7582 0.26829,-0.45492 0.68821,-0.72321 0.41993,-0.26828 1.01482,-0.26828 0.48992,0 0.82819,0.11664 0.34994,0.11665 0.5599,0.40826 0.22163,0.27995 0.32661,0.7582 0.10498,0.47825 0.10498,1.21312 v 3.49937 h -1.5164 v -3.27775 q 0,-0.68821 -0.15164,-1.02648 -0.13997,-0.34994 -0.64155,-0.34994 -0.40826,0 -0.65322,0.22163 -0.23329,0.22163 -0.34993,0.60656 v 3.82598 z"
       inkscape:connector-curvature="0" />
    <path
       id="path1741-0"
       style="font-style:normal;font-variant:normal;font-weight:bold;font-stretch:normal;font-size:40px;line-height:1.25;font-family:'PT Sans';-inkscape-font-specification:'PT Sans, Bold';font-variant-ligatures:normal;font-variant-caps:normal;font-variant-numeric:normal;font-feature-settings:normal;text-align:start;letter-spacing:0px;word-spacing:0px;writing-mode:lr-tb;text-anchor:start;fill:#0f8282;fill-opacity:1;stroke:none;stroke-width:0.39687583"
       d="m 108.45333,203.47433 h 1.10814 l 0.17497,0.69988 h 0.0466 q 0.30328,-0.44326 0.71154,-0.65322 0.41993,-0.20996 1.01482,-0.20996 1.09647,0 1.64471,0.69987 0.54823,0.68821 0.54823,2.22794 0,0.74653 -0.17496,1.35309 -0.17497,0.59489 -0.52491,1.01482 -0.33827,0.41992 -0.83985,0.64155 -0.48991,0.22163 -1.13147,0.22163 -0.3616,0 -0.59489,-0.0583 -0.23329,-0.0467 -0.46658,-0.1633 v 2.39124 h -1.5164 z m 2.6012,1.1198 q -0.44325,0 -0.69987,0.22163 -0.24496,0.22162 -0.38493,0.66488 v 2.42623 q 0.1633,0.12831 0.34993,0.20996 0.1983,0.07 0.51325,0.07 0.65321,0 0.97982,-0.45492 0.32661,-0.46658 0.32661,-1.52806 0,-0.76986 -0.25662,-1.18978 -0.25662,-0.41993 -0.82819,-0.41993 z"
       inkscape:connector-curvature="0" />
    <path
       id="path1743-7"
       style="font-style:normal;font-variant:normal;font-weight:bold;font-stretch:normal;font-size:40px;line-height:1.25;font-family:'PT Sans';-inkscape-font-specification:'PT Sans, Bold';font-variant-ligatures:normal;font-variant-caps:normal;font-variant-numeric:normal;font-feature-settings:normal;text-align:start;letter-spacing:0px;word-spacing:0px;writing-mode:lr-tb;text-anchor:start;fill:#0f8282;fill-opacity:1;stroke:none;stroke-width:0.39687583"
       d="m 116.73516,206.75208 0.20997,0.90984 h 0.07 l 0.15164,-0.92151 0.88651,-3.26608 h 1.56306 l -1.77302,5.26073 q -0.22163,0.65321 -0.43159,1.18979 -0.1983,0.54823 -0.44326,0.94483 -0.24495,0.39659 -0.54823,0.60655 -0.29162,0.22163 -0.69988,0.22163 -0.60655,0 -0.96816,-0.1983 l 0.27995,-1.21311 q 0.17497,0.07 0.34994,0.07 0.26829,0 0.51324,-0.23329 0.25662,-0.22162 0.38493,-0.81652 l -2.43789,-5.83229 h 1.81967 z"
       inkscape:connector-curvature="0" />
  </g>
</svg>
