<?xml version="1.0" encoding="UTF-8" standalone="no"?>
<!-- Creator: CorelDRAW Home & Student X7 -->

<svg
   xmlns:osb="http://www.openswatchbook.org/uri/2009/osb"
   xmlns:dc="http://purl.org/dc/elements/1.1/"
   xmlns:cc="http://creativecommons.org/ns#"
   xmlns:rdf="http://www.w3.org/1999/02/22-rdf-syntax-ns#"
   xmlns:svg="http://www.w3.org/2000/svg"
   xmlns="http://www.w3.org/2000/svg"
   xmlns:xlink="http://www.w3.org/1999/xlink"
   xmlns:sodipodi="http://sodipodi.sourceforge.net/DTD/sodipodi-0.dtd"
   xmlns:inkscape="http://www.inkscape.org/namespaces/inkscape"
   xml:space="preserve"
   width="1446.0487"
   height="1446.0487"
   version="1.1"
   style="clip-rule:evenodd;fill-rule:evenodd;image-rendering:optimizeQuality;shape-rendering:geometricPrecision;text-rendering:geometricPrecision"
   viewBox="0 0 13091.18 13090.244"
   id="svg22"
   sodipodi:docname="Pharmpy_logo.svg"
   inkscape:version="0.92.4 (5da689c313, 2019-01-14)"><metadata
   id="metadata26"><rdf:RDF><cc:Work
       rdf:about=""><dc:format>image/svg+xml</dc:format><dc:type
         rdf:resource="http://purl.org/dc/dcmitype/StillImage" /><dc:title></dc:title></cc:Work></rdf:RDF></metadata><sodipodi:namedview
   pagecolor="#ffffff"
   bordercolor="#666666"
   borderopacity="1"
   objecttolerance="10"
   gridtolerance="10"
   guidetolerance="10"
   inkscape:pageopacity="0"
   inkscape:pageshadow="2"
   inkscape:window-width="1920"
   inkscape:window-height="1016"
   id="namedview24"
   showgrid="false"
   inkscape:zoom="0.4616088"
   inkscape:cx="723.02435"
   inkscape:cy="723.02435"
   inkscape:window-x="0"
   inkscape:window-y="27"
   inkscape:window-maximized="1"
   inkscape:current-layer="svg22" />
 <defs
   id="defs4"><linearGradient
   id="linearGradient4544"
   osb:paint="gradient"><stop
     style="stop-color:#4f00aa;stop-opacity:1;"
     offset="0"
     id="stop4540" /><stop
     style="stop-color:#000000;stop-opacity:0;"
     offset="1"
     id="stop4542" /></linearGradient>
  <style
   type="text/css"
   id="style2">
   <![CDATA[
    .fil0 {fill:black}
   ]]>
  </style>
 <linearGradient
   inkscape:collect="always"
   xlink:href="#linearGradient4544"
   id="linearGradient835"
   gradientUnits="userSpaceOnUse"
   x1="-1.5258789e-05"
   y1="6545.1826"
   x2="13091.18"
   y2="6545.1826" /></defs>
 <g
   id="Layer_x0020_1"
   transform="translate(2307.677,786.72002)">
  <metadata
   id="CorelCorpID_0Corel-Layer" />
  <path
   class="fil0"
   d="M 6349,548 C 6227,210 5972,-94 5029,247 c -676,245 -1069,871 -946,1209 89,246 713,260 1390,15 675,-244 999,-585 876,-923 z M 5126,961 c -121,61 -245,58 -277,-6 -32,-65 39,-165 159,-226 121,-61 245,-58 277,6 33,65 -39,166 -159,226 z"
   id="path7"
   inkscape:connector-curvature="0"
   style="fill:#000000" />
  <path
   class="fil0"
   d="m 3649,1767 c -27,4 -27,9 0,14 l 239,42 -250,147 c -23,14 -20,21 6,16 473,-98 898,-453 898,-453 l -65,-32 c -3,3 -420,219 -828,266 z"
   id="path9"
   inkscape:connector-curvature="0"
   style="fill:#000000" />
  <g
   id="_733798384">
   <path
   class="fil0"
   d="M 4064,9613 V 6943 c 936,-220 1552,-778 1952,-1450 -582,234 -1179,421 -1722,589 -642,200 -1503,468 -2005,757 111,40 227,75 348,104 v 2670 l -1507,1396 c -231,214 -163,388 152,388 h 4137 c 315,0 383,-174 152,-388 z"
   id="path11"
   inkscape:connector-curvature="0"
   style="fill:#000000" />
   <path
   class="fil0"
   d="m 3828,4584 c 1201,-374 2201,-718 2837,-1190 21,-197 33,-384 37,-557 2,-79 -62,-143 -141,-143 H 141 c -79,0 -143,64 -141,143 20,877 228,2131 952,3042 675,-610 1787,-956 2876,-1295 z"
   id="path13"
   inkscape:connector-curvature="0"
   style="fill:#000000" />
  </g>
  <g
   id="_733798768">
   <path
   class="fil0"
   d="m 7157,10786 c -227,-221 -471,-442 -741,-640 -266,-203 -553,-386 -846,-557 -399,-230 -814,-428 -1221,-605 v 505 l 272,251 c 242,89 483,184 720,292 291,136 578,282 846,450 272,162 522,349 758,538 80,64 155,132 229,199 58,53 150,53 205,1 54,-52 54,-141 1,-199 -72,-79 -144,-159 -223,-235 z"
   id="path16"
   inkscape:connector-curvature="0"
   style="fill:#000000" />
   <path
   class="fil0"
   d="M 7370,153 C 6727,-90 6025,-38 5408,269 c -317,157 264,979 461,885 421,-201 848,-180 1148,-67 206,77 685,327 685,965 0,1509 -1571,2114 -3789,2804 -1708,531 -3321,1033 -3321,2427 0,0 7,59 19,169 6,55 13,122 40,203 25,80 47,173 102,266 88,201 261,392 461,553 204,163 439,277 688,385 145,61 296,115 450,166 v -882 c -30,-16 -62,-31 -91,-47 -195,-107 -362,-213 -463,-315 -31,-24 -45,-51 -67,-73 -21,-24 -42,-45 -51,-68 -13,-22 -26,-42 -38,-60 -7,-20 -14,-39 -20,-57 -19,-32 -17,-68 -24,-96 -9,-26 -6,-55 -5,-77 0,-44 -2,-67 -2,-67 0,-658 1331,-1073 2618,-1473 C 6210,5187 8700,4413 8700,2052 8701,1190 8191,462 7370,153 Z"
   id="path18"
   inkscape:connector-curvature="0"
   style="fill:#000000" />
  </g>
 </g>
<circle
   style="fill:url(#linearGradient835);fill-opacity:1;stroke:#000000;stroke-width:27.15921021;stroke-miterlimit:4;stroke-dasharray:none;stroke-opacity:1;fill-rule:evenodd"
   id="path4538"
   cx="6545.5898"
   cy="6545.1826"
   r="6532.0103" /></svg>